<svg width="100" height="100" viewBox="0 0 100 100" fill="none" xmlns="http://www.w3.org/2000/svg">
<rect width="100" height="100" rx="50" fill="#6E32C9"/>
<path d="M37.1959 60.9453H36.4316V64.3846H37.1959C37.5714 64.3846 37.873 64.2572 38.0943 64.0024C38.3155 63.7477 38.4295 63.4192 38.4295 63.0236V62.3063C38.4295 61.9107 38.3155 61.5889 38.0943 61.3342C37.873 61.0727 37.5714 60.9453 37.1959 60.9453Z" fill="#F0C419"/>
<path d="M49.1232 58.0566H27.3145V67.0335H45.8381L49.1232 58.0566ZM34.26 62.8367C33.965 63.1049 33.5628 63.2323 33.0465 63.2323H32.0342V65.0089H31.2498V60.316H33.0465C33.5628 60.316 33.9717 60.45 34.26 60.7182C34.555 60.9864 34.7025 61.335 34.7025 61.7708C34.7025 62.2199 34.555 62.5686 34.26 62.8367ZM39.2077 63.0244C39.2077 63.6144 39.02 64.0904 38.6512 64.4591C38.2758 64.8279 37.7931 65.0156 37.1964 65.0156H35.6478V60.3227H37.1964C37.7931 60.3227 38.2758 60.5104 38.6512 60.8791C39.0267 61.2478 39.2077 61.7305 39.2077 62.3138V63.0244ZM43.2704 60.9461H41.0513V62.3808H42.9419V63.011H41.0513V65.0156H40.2669V60.3227H43.2704V60.9461Z" fill="#F0C419"/>
<path d="M33.0455 60.9453H32.0332V62.6012H33.0455C33.3338 62.6012 33.5551 62.5208 33.7025 62.3666C33.85 62.2124 33.9238 62.018 33.9238 61.7766C33.9238 61.5353 33.85 61.3409 33.7025 61.18C33.5551 61.0258 33.3338 60.9453 33.0455 60.9453Z" fill="#F0C419"/>
<path d="M59.8254 24H34.2934C33.5342 24 32.9102 24.624 32.9102 25.3832V56.6664H35.6766V26.7664H59.8254V36.3552H69.4142V73.2336H35.6766V68.0544H32.9102V74.6168C32.9102 75.376 33.5342 76 34.2934 76H70.7974C71.5566 76 72.1806 75.376 72.1806 74.6168V36.3552L59.8254 24Z" fill="white"/>
<path d="M39.2413 39.1819H55.1032C55.562 39.1819 55.9344 38.8101 55.9344 38.3507C55.9344 37.8913 55.562 37.5195 55.1032 37.5195H39.2413C38.782 37.5195 38.4102 37.8913 38.4102 38.3507C38.4102 38.8101 38.782 39.1819 39.2413 39.1819Z" fill="white"/>
<path d="M39.2413 44.1702H47.8995C48.3584 44.1702 48.7307 43.7984 48.7307 43.339C48.7307 42.8796 48.3584 42.5078 47.8995 42.5078H39.2413C38.782 42.5078 38.4102 42.8796 38.4102 43.339C38.4102 43.7984 38.782 44.1702 39.2413 44.1702Z" fill="white"/>
<path d="M39.2413 49.1565H52.0555C52.5143 49.1565 52.8867 48.7847 52.8867 48.3253C52.8867 47.866 52.5143 47.4941 52.0555 47.4941H39.2413C38.782 47.4941 38.4102 47.866 38.4102 48.3253C38.4102 48.7847 38.782 49.1565 39.2413 49.1565Z" fill="white"/>
<path d="M46.4799 53.3136C46.4799 52.8548 46.1081 52.4824 45.6487 52.4824H39.2413C38.782 52.4824 38.4102 52.8548 38.4102 53.3136C38.4102 53.7724 38.782 54.1448 39.2413 54.1448H45.6487C46.1075 54.1448 46.4799 53.7724 46.4799 53.3136Z" fill="white"/>
<path d="M64.1892 65.0481L62.1339 67.1278L59.9983 62.3495C59.9905 62.3329 59.98 62.318 59.9712 62.3019C59.9573 62.2753 59.9429 62.2481 59.9257 62.2232C59.9096 62.1983 59.8908 62.1767 59.872 62.1545C59.8564 62.1362 59.8409 62.1174 59.8238 62.0996C59.7983 62.0747 59.7711 62.0531 59.7429 62.0315C59.7312 62.0226 59.7218 62.0121 59.7091 62.0032C59.7052 62.0004 59.7007 61.9988 59.6969 61.9966C59.668 61.9777 59.6381 61.9617 59.6071 61.9467C59.5877 61.9367 59.5694 61.9262 59.5495 61.9179C59.5234 61.9068 59.4957 61.9007 59.4686 61.8929C59.4436 61.8852 59.4192 61.8769 59.3938 61.8719C59.3677 61.8669 59.3417 61.8663 59.3156 61.8636C59.2885 61.8608 59.2613 61.8569 59.2347 61.8575C59.2092 61.8575 59.1837 61.8614 59.1588 61.8641C59.13 61.8669 59.1017 61.8686 59.074 61.8747C59.0519 61.8791 59.0297 61.8868 59.0075 61.8935C58.9765 61.9029 58.946 61.9112 58.9161 61.924C58.9106 61.9262 58.905 61.9273 58.9 61.9295C58.884 61.9373 58.8701 61.9472 58.8546 61.9556C58.8263 61.97 58.7986 61.9849 58.7726 62.0027C58.7504 62.0176 58.7305 62.0354 58.7105 62.0525C58.6895 62.0697 58.669 62.0863 58.6496 62.1063C58.6274 62.129 58.608 62.1534 58.5886 62.1789C58.5775 62.1922 58.5648 62.2038 58.5548 62.2182L55.9416 66.0239L55.2982 65.364C55.2943 65.3595 55.2882 65.3584 55.2844 65.354C55.2555 65.3263 55.2278 65.2975 55.1946 65.2731C55.1436 65.236 55.0893 65.2066 55.0333 65.1822C55.0245 65.1783 55.0156 65.1767 55.0067 65.1734C54.9142 65.1373 54.8183 65.1157 54.7214 65.1141C54.7131 65.1141 54.7053 65.1157 54.697 65.1157C54.5984 65.1163 54.5008 65.1329 54.4083 65.1678C54.4005 65.1711 54.3939 65.1756 54.3861 65.1789C54.2936 65.2166 54.2066 65.2709 54.1312 65.3435C54.1285 65.3457 54.1251 65.3462 54.1224 65.349C54.1174 65.354 54.1157 65.3607 54.1107 65.3656C54.0836 65.3939 54.0559 65.4205 54.0326 65.4526L52.5088 67.5306C52.2372 67.9008 52.317 68.4205 52.6872 68.6926C52.8357 68.8007 53.0075 68.8533 53.1781 68.8533C53.4336 68.8533 53.6863 68.7358 53.8486 68.5136L54.7923 67.2269L55.4534 67.9057C55.4539 67.9063 55.4539 67.9063 55.4545 67.9069L55.4573 67.9102C55.4584 67.9113 55.4595 67.9113 55.4606 67.9124C55.4971 67.9495 55.5376 67.9844 55.5819 68.0155C55.6152 68.0382 55.6517 68.0493 55.6867 68.0664C55.7138 68.0797 55.7393 68.0953 55.7676 68.1052C55.8601 68.1396 55.9554 68.1618 56.0513 68.1618C56.0513 68.1618 56.0513 68.1618 56.0518 68.1618C56.0524 68.1618 56.0524 68.1618 56.0529 68.1618C56.146 68.1612 56.2369 68.1401 56.325 68.1097C56.3444 68.1025 56.3632 68.0964 56.3826 68.0881C56.4685 68.0509 56.5483 68.0005 56.6187 67.9346C56.6226 67.9307 56.6287 67.9296 56.632 67.9257C56.6409 67.9174 56.6436 67.9063 56.6514 67.8974C56.6808 67.8659 56.7118 67.837 56.7367 67.8005L59.084 64.3815L61.1016 68.8943V68.8949L61.1115 68.9165C61.1514 69.0057 61.208 69.081 61.2717 69.1475C61.2778 69.1542 61.2794 69.1625 61.2855 69.1686C61.2983 69.1808 61.316 69.1852 61.3293 69.1974C61.3869 69.2473 61.449 69.2883 61.5172 69.321C61.5427 69.3326 61.5665 69.3459 61.5931 69.3553C61.6812 69.3869 61.7732 69.4085 61.8685 69.4085C61.869 69.4085 61.8696 69.4091 61.8701 69.4091C61.8707 69.4091 61.8707 69.4091 61.8707 69.4091C61.9682 69.4091 62.0669 69.388 62.1622 69.3515C62.1732 69.3476 62.1832 69.3459 62.1937 69.3415C62.1993 69.3387 62.2043 69.3382 62.2093 69.3359C62.3012 69.2949 62.3799 69.2373 62.4481 69.1708C62.452 69.1669 62.4581 69.1658 62.4614 69.1614L65.3705 66.2173C65.693 65.8904 65.6897 65.3645 65.3633 65.0415C65.0375 64.7201 64.5122 64.7217 64.1892 65.0481Z" fill="#F0C419"/>
<path d="M37.7437 28.9073V32.8404H37.0312V28.9073H37.7437Z" fill="#F0C419"/>
<path d="M41.7474 28.9073V32.8404H41.1137L39.2604 30.1613H39.2278V32.8404H38.5153V28.9073H39.1529L41.0042 31.5882H41.0388V28.9073H41.7474Z" fill="#F0C419"/>
<path d="M43.05 28.9073L44.0736 32.0031H44.1139L45.1356 28.9073H45.9191L44.5325 32.8404H43.653L42.2683 28.9073H43.05Z" fill="#F0C419"/>
<path d="M49.7403 30.8738C49.7403 31.2976 49.661 31.6606 49.5022 31.9627C49.3447 32.2636 49.1296 32.4941 48.8569 32.6541C48.5855 32.8141 48.2776 32.8942 47.9332 32.8942C47.5888 32.8942 47.2802 32.8141 47.0075 32.6541C46.7361 32.4928 46.521 32.2617 46.3623 31.9608C46.2048 31.6587 46.126 31.2963 46.126 30.8738C46.126 30.4501 46.2048 30.0877 46.3623 29.7869C46.521 29.4847 46.7361 29.2536 47.0075 29.0936C47.2802 28.9335 47.5888 28.8535 47.9332 28.8535C48.2776 28.8535 48.5855 28.9335 48.8569 29.0936C49.1296 29.2536 49.3447 29.4847 49.5022 29.7869C49.661 30.0877 49.7403 30.4501 49.7403 30.8738ZM49.024 30.8738C49.024 30.5755 48.9773 30.3239 48.8838 30.1191C48.7916 29.913 48.6636 29.7574 48.4997 29.6524C48.3358 29.5462 48.147 29.493 47.9332 29.493C47.7194 29.493 47.5305 29.5462 47.3667 29.6524C47.2028 29.7574 47.0741 29.913 46.9806 30.1191C46.8885 30.3239 46.8424 30.5755 46.8424 30.8738C46.8424 31.1721 46.8885 31.4244 46.9806 31.6305C47.0741 31.8353 47.2028 31.9909 47.3667 32.0972C47.5305 32.2021 47.7194 32.2546 47.9332 32.2546C48.147 32.2546 48.3358 32.2021 48.4997 32.0972C48.6636 31.9909 48.7916 31.8353 48.8838 31.6305C48.9773 31.4244 49.024 31.1721 49.024 30.8738Z" fill="#F0C419"/>
<path d="M51.1264 28.9073V32.8404H50.4139V28.9073H51.1264Z" fill="#F0C419"/>
<path d="M55.2645 30.2343H54.5463C54.5258 30.1165 54.488 30.0122 54.433 29.9213C54.3779 29.8291 54.3094 29.751 54.2275 29.687C54.1455 29.623 54.0521 29.575 53.9471 29.543C53.8434 29.5097 53.7314 29.493 53.611 29.493C53.3972 29.493 53.2077 29.5468 53.0426 29.6543C52.8774 29.7606 52.7481 29.9168 52.6546 30.1229C52.5612 30.3278 52.5144 30.5781 52.5144 30.8738C52.5144 31.1747 52.5612 31.4282 52.6546 31.6343C52.7494 31.8392 52.8787 31.9941 53.0426 32.0991C53.2077 32.2028 53.3966 32.2546 53.6091 32.2546C53.7269 32.2546 53.837 32.2393 53.9394 32.2085C54.0431 32.1765 54.1359 32.1298 54.2179 32.0684C54.3011 32.0069 54.3709 31.9314 54.4272 31.8417C54.4848 31.7521 54.5245 31.6497 54.5463 31.5345L55.2645 31.5383C55.2376 31.7252 55.1794 31.9006 55.0898 32.0645C55.0014 32.2284 54.8856 32.3731 54.7422 32.4985C54.5988 32.6227 54.431 32.72 54.239 32.7904C54.047 32.8596 53.8338 32.8942 53.5995 32.8942C53.2538 32.8942 52.9453 32.8141 52.6738 32.6541C52.4024 32.4941 52.1886 32.263 52.0324 31.9608C51.8762 31.6587 51.7981 31.2963 51.7981 30.8738C51.7981 30.4501 51.8768 30.0877 52.0343 29.7869C52.1918 29.4847 52.4062 29.2536 52.6777 29.0936C52.9491 28.9335 53.2564 28.8535 53.5995 28.8535C53.8184 28.8535 54.022 28.8842 54.2102 28.9457C54.3984 29.0072 54.5661 29.0974 54.7134 29.2165C54.8606 29.3343 54.9816 29.4789 55.0763 29.6505C55.1723 29.8208 55.2351 30.0154 55.2645 30.2343Z" fill="#F0C419"/>
<path d="M55.917 32.8404V28.9073H58.475V29.5045H56.6295V30.5723H58.3425V31.1696H56.6295V32.2431H58.4904V32.8404H55.917Z" fill="#F0C419"/>
</svg>
